<?xml version="1.0" encoding="UTF-8" standalone="no"?>
<!-- Created with Inkscape (http://www.inkscape.org/) -->

<svg
   xmlns:dc="http://purl.org/dc/elements/1.1/"
   xmlns:cc="http://creativecommons.org/ns#"
   xmlns:rdf="http://www.w3.org/1999/02/22-rdf-syntax-ns#"
   xmlns:svg="http://www.w3.org/2000/svg"
   xmlns="http://www.w3.org/2000/svg"
   xmlns:sodipodi="http://sodipodi.sourceforge.net/DTD/sodipodi-0.dtd"
   xmlns:inkscape="http://www.inkscape.org/namespaces/inkscape"
   width="200"
   height="200"
   viewBox="0 0 52.916666 52.916668"
   version="1.1"
   id="svg8"
   inkscape:export-filename="/home/ivo/test.png"
   inkscape:export-xdpi="96"
   inkscape:export-ydpi="96"
   inkscape:version="0.92.2 2405546, 2018-03-11"
   sodipodi:docname="drawing.svg">
  <defs
     id="defs2" />
  <sodipodi:namedview
     id="base"
     pagecolor="#ffffff"
     bordercolor="#666666"
     borderopacity="1.0"
     inkscape:pageopacity="0.0"
     inkscape:pageshadow="2"
     inkscape:zoom="2.8"
     inkscape:cx="113.214"
     inkscape:cy="113.28507"
     inkscape:document-units="mm"
     inkscape:current-layer="layer1"
     showgrid="true"
     units="px"
     fit-margin-top="0"
     fit-margin-left="0"
     fit-margin-right="0"
     fit-margin-bottom="0"
     inkscape:window-width="1892"
     inkscape:window-height="1015"
     inkscape:window-x="12"
     inkscape:window-y="49"
     inkscape:window-maximized="1">
    <inkscape:grid
       type="xygrid"
       id="grid3723"
       enabled="true"
       originx="0"
       originy="-3.6666668e-06" />
  </sodipodi:namedview>
  <metadata
     id="metadata5">
    <rdf:RDF>
      <cc:Work
         rdf:about="">
        <dc:format>image/svg+xml</dc:format>
        <dc:type
           rdf:resource="http://purl.org/dc/dcmitype/StillImage" />
        <dc:title></dc:title>
      </cc:Work>
    </rdf:RDF>
  </metadata>
  <g
     inkscape:label="Layer 1"
     inkscape:groupmode="layer"
     id="layer1"
     transform="translate(0,-244.08332)">
    <g
       id="g4575"
       transform="matrix(2,0,0,1.9999997,0,-296.99991)">
      <g
         id="g4569">
        <path
           style="fill:#ececec;fill-opacity:1;stroke:none;stroke-width:1.33338618;stroke-opacity:1"
           d="M 81.777344,88.554688 55,35 H 45 L 18.216797,88.566406 A 50.000001,50.000001 0 0 0 50,100 50.000001,50.000001 0 0 0 81.777344,88.554688 Z"
           id="path4565"
           transform="matrix(0.26458333,0,0,0.26458333,0,270.54165)"
           inkscape:connector-curvature="0" />
        <path
           style="stroke-width:1.33338618"
           d="M 50,0 A 50.000001,50.000001 0 0 0 0,50 50.000001,50.000001 0 0 0 18.216797,88.566406 L 45,35 H 55 L 81.777344,88.554688 A 50.000001,50.000001 0 0 0 100,50 50.000001,50.000001 0 0 0 50,0 Z"
           id="path3721"
           transform="matrix(0.26458333,0,0,0.26458333,0,270.54165)"
           inkscape:connector-curvature="0" />
      </g>
      <circle
         r="4.2494502"
         cy="277.15622"
         cx="13.229166"
         id="path3727"
         style="fill:#ececec;stroke-width:0.42494503" />
    </g>
  </g>
</svg>
